<?xml version="1.0" encoding="utf-8"?>
<!-- Generator: Adobe Illustrator 24.3.0, SVG Export Plug-In . SVG Version: 6.00 Build 0)  -->
<svg version="1.1" id="Calque_1" xmlns="http://www.w3.org/2000/svg" xmlns:xlink="http://www.w3.org/1999/xlink" x="0px" y="0px"
	 viewBox="0 0 283.5 283.5" style="enable-background:new 0 0 283.5 283.5;" xml:space="preserve">
<style type="text/css">
	.st0{fill:#FFFFFF;}
</style>
<g id="Calque_1_1_">
</g>
<g id="Calque_2_1_">
	<g>
		<path class="st0" d="M56.9,242.1c0,0-18.7-29.9,18.1-60.8c0,0,16-12.3,28.3-34.7s58.1-29.9,77.8-3.2c0,0,13.9,27.7,26.7,36.3
			c12.8,8.5,36.8,30.9,21.3,64.5c0,0-20.8,33.1-72,14.9c0,0-14.4-5.9-27.7,1.1C116.1,267.1,68.6,270.3,56.9,242.1z"/>
		<path class="st0" d="M62.8,74.7c0,0,1.1-33.6,38.9-55.4c0,0,27.2-13.3,30.9,34.1s-9.1,65.6-31.5,69.8
			C101.1,123.2,64.9,130.7,62.8,74.7z"/>
		<path class="st0" d="M12.1,142.4c0,0-2.7-47.5,28.8-49.6c0,0,19.7,0.5,36.3,48c0,0,10.1,34.1-20.3,44.3
			C56.9,185,18.5,190.4,12.1,142.4z"/>
		<path class="st0" d="M223.6,74.9c0,0-1.1-33.6-38.9-55.4c0,0-27.2-13.3-30.9,34.1s9.1,65.6,31.5,69.8
			C185.2,123.5,221.4,130.9,223.6,74.9z"/>
		<path class="st0" d="M274.2,142.7c0,0,2.7-47.5-28.8-49.6c0,0-19.7,0.5-36.3,48c0,0-10.1,34.1,20.3,44.3
			C229.4,185.3,267.8,190.6,274.2,142.7z"/>
	</g>
</g>
</svg>
