<?xml version="1.0" encoding="utf-8"?>
<!-- Generator: Adobe Illustrator 24.3.0, SVG Export Plug-In . SVG Version: 6.00 Build 0)  -->
<svg version="1.1" xmlns="http://www.w3.org/2000/svg" xmlns:xlink="http://www.w3.org/1999/xlink" x="0px" y="0px"
	 viewBox="0 0 302.2 74.1" style="enable-background:new 0 0 302.2 74.1;" xml:space="preserve">
<style type="text/css">
	.st0{fill:#9C3127;}
	.st1{fill:none;stroke:#FFFFFF;stroke-width:4.8649;stroke-miterlimit:10;}
</style>
<g id="Calque_1">
	<path d="M22.1,27h1.1l-7.5,21.1h-4.1l9-25.2h4.1l9,25.2h-4.2L22.1,27z M28,41.8H17.4v-3.7H28V41.8z"/>
	<path d="M36,48.1V30.2h3.6l0.3,3.4l-1.1-1.1c0.9-0.9,1.8-1.5,2.8-1.9c1-0.4,2.1-0.7,3.3-0.7c2.4,0,4.2,0.8,5.3,2.3
		c1.1,1.5,1.7,3.5,1.7,6v9.9h-4v-9.7c0-1.8-0.3-3-0.9-3.9c-0.6-0.8-1.6-1.2-3-1.2c-1.1,0-2,0.3-2.8,0.8s-1.4,1.2-1.8,2.2l0.7-2.1v14
		H36z"/>
	<path d="M56,27v-4.2h4V27H56z M56,48.1V30.2h4v17.9H56z"/>
	<path d="M64.2,48.1V30.2h3.3l0.4,2.9l-0.8-0.7c0.8-0.8,1.7-1.4,2.7-1.8c1-0.4,2.1-0.7,3.3-0.7c0.9,0,1.8,0.1,2.5,0.4
		c0.8,0.3,1.4,0.7,2,1.3c0.6,0.6,1,1.3,1.4,2.3l-1-0.3c0.6-1.2,1.4-2.1,2.5-2.7s2.4-1,4-1c1.6,0,2.9,0.3,3.9,0.9
		c1,0.6,1.8,1.5,2.3,2.7c0.5,1.2,0.7,2.6,0.7,4.3v10.2h-4v-9.9c0-1.7-0.3-2.9-0.8-3.7c-0.6-0.8-1.5-1.2-2.8-1.2
		c-0.8,0-1.4,0.1-1.9,0.4c-0.5,0.2-0.9,0.6-1.2,1c-0.3,0.4-0.5,0.9-0.6,1.5s-0.2,1.2-0.2,1.8v10.1h-4v-9.7c0-1.2-0.1-2.2-0.4-3
		c-0.3-0.7-0.7-1.3-1.2-1.6c-0.6-0.3-1.2-0.5-2.1-0.5c-1.1,0-2,0.2-2.8,0.7c-0.8,0.5-1.4,1.2-1.8,2.2l0.7-2.2v14.1H64.2z"/>
	<path class="st0" d="M95.7,48.1V22.9h15.9v4H99.9v6.1h9.1v4h-9.1v7.2h12v4H95.7z"/>
	<path class="st0" d="M115,48.1V30.2h3.6l0.2,2.3c0.6-0.7,1.4-1.4,2.2-1.9c0.8-0.5,1.7-0.8,2.7-0.8c0.3,0,0.6,0,0.8,0.1l-0.3,4.1
		c-0.2-0.1-0.5-0.1-0.7-0.1c-0.2,0-0.5,0-0.7,0c-0.8,0-1.6,0.2-2.2,0.6c-0.7,0.4-1.2,0.8-1.4,1.3v12.3H115z"/>
	<path class="st0" d="M133.7,57.1c-1.7,0-3.1-0.2-4.4-0.6c-1.3-0.4-2.2-1-2.9-1.8c-0.7-0.8-1.1-1.7-1.1-2.8c0-0.9,0.3-1.7,0.8-2.4
		c0.5-0.7,1.2-1.3,2.2-1.8c-0.5-0.3-0.9-0.6-1.2-1.1s-0.4-0.9-0.4-1.4c0-0.6,0.2-1.1,0.5-1.5c0.3-0.4,0.8-0.8,1.4-1
		c-0.9-0.6-1.7-1.5-2.1-2.5c-0.5-1-0.7-2.1-0.7-3.4c0-1.3,0.3-2.5,0.9-3.5c0.6-1.1,1.4-1.9,2.5-2.6c1.1-0.6,2.4-1,4-1
		c0.8,0,1.6,0.1,2.3,0.3c0.7,0.2,1.3,0.5,1.9,0.9c0.4-0.3,1-0.5,1.7-0.6c0.7-0.2,1.5-0.3,2.3-0.3c0.2,0,0.3,0,0.4,0
		c0.1,0,0.3,0,0.4,0l-0.3,2.6c-0.2,0-0.4,0-0.7,0s-0.4,0-0.7,0c-0.1,0-0.3,0-0.6,0c-0.3,0-0.5,0-0.8,0.1c0.4,0.6,0.7,1.2,0.9,1.9
		c0.2,0.7,0.3,1.4,0.3,2.1c0,1.3-0.3,2.5-0.8,3.6c-0.6,1.1-1.4,1.9-2.5,2.6c-1.1,0.6-2.4,1-4,1c-0.4,0-0.7,0-1.1-0.1
		c-0.3,0-0.7-0.1-1-0.2c-0.4,0.1-0.5,0.4-0.5,0.7c0,0.3,0.2,0.5,0.5,0.7c0.4,0.2,0.9,0.3,1.7,0.4l3.7,0.5c1.9,0.3,3.4,0.8,4.5,1.6
		s1.6,2,1.6,3.5c0,1.2-0.3,2.2-1,3.1c-0.7,0.9-1.7,1.5-3,2C137.1,56.9,135.5,57.1,133.7,57.1z M133.9,53.9c1.6,0,2.8-0.2,3.6-0.6
		c0.8-0.4,1.2-1,1.2-1.8c0-0.7-0.3-1.2-0.8-1.5c-0.5-0.3-1.4-0.6-2.5-0.8l-4.3-0.7c-0.6,0.3-1.1,0.6-1.6,1c-0.4,0.4-0.6,1-0.6,1.6
		c0,0.9,0.5,1.6,1.4,2C131.1,53.7,132.3,53.9,133.9,53.9z M133,41c1.2,0,2.1-0.4,2.7-1.1c0.6-0.7,0.9-1.7,0.9-3
		c0-1.2-0.3-2.2-0.9-2.9c-0.6-0.7-1.5-1.1-2.7-1.1c-1.2,0-2.1,0.4-2.7,1.1c-0.6,0.7-0.9,1.7-0.9,2.9c0,1.2,0.3,2.2,0.9,3
		S131.8,41,133,41z"/>
	<path class="st0" d="M153.1,48.4c-2.1,0-3.9-0.4-5.4-1.3c-1.4-0.9-2.5-2-3.2-3.4c-0.7-1.4-1.1-3-1.1-4.7c0-1.6,0.3-3.2,1-4.5
		c0.7-1.4,1.7-2.5,3-3.3c1.3-0.8,2.9-1.3,4.7-1.3c1.6,0,3,0.3,4.2,1c1.2,0.7,2,1.6,2.6,2.7c0.6,1.2,0.9,2.5,0.9,4
		c0,0.3,0,0.7-0.1,1.1s-0.1,0.7-0.2,1.1h-12.1c0.2,1.3,0.5,2.3,1.1,3.1c0.6,0.8,1.3,1.3,2.1,1.7c0.8,0.3,1.7,0.5,2.7,0.5
		c1,0,1.9-0.1,2.8-0.4c0.9-0.2,1.7-0.6,2.5-1l0.3,3.3c-0.7,0.3-1.5,0.6-2.5,0.9C155.5,48.3,154.4,48.4,153.1,48.4z M147.7,37h8
		c0-0.6-0.1-1.3-0.4-1.8c-0.2-0.6-0.6-1-1.2-1.4c-0.5-0.4-1.2-0.5-2.1-0.5c-1.3,0-2.2,0.3-2.9,1C148.5,35,148,35.9,147.7,37z"/>
	<path class="st0" d="M163,48.1V30.2h3.6l0.3,3.4l-1.1-1.1c0.9-0.9,1.8-1.5,2.8-1.9c1-0.4,2.1-0.7,3.3-0.7c2.4,0,4.2,0.8,5.3,2.3
		c1.1,1.5,1.7,3.5,1.7,6v9.9h-4v-9.7c0-1.8-0.3-3-0.9-3.9c-0.6-0.8-1.6-1.2-3-1.2c-1.1,0-2,0.3-2.8,0.8c-0.8,0.5-1.4,1.2-1.8,2.2
		l0.7-2.1v14H163z"/>
	<path class="st0" d="M191.2,48.4c-2,0-3.8-0.4-5.1-1.3s-2.4-1.9-3.1-3.3s-1.1-2.9-1.1-4.6c0-1.7,0.3-3.3,1-4.7
		c0.7-1.4,1.7-2.5,3.1-3.4c1.4-0.8,3.2-1.3,5.3-1.3c1,0,1.9,0.1,2.7,0.3c0.8,0.2,1.5,0.5,2.1,0.8l-0.4,3.3c-0.6-0.3-1.2-0.5-1.9-0.7
		s-1.4-0.3-2.2-0.3c-1.8,0-3.2,0.5-4.2,1.6c-1,1.1-1.5,2.5-1.5,4.3c0,1.7,0.5,3.1,1.5,4.2c1,1.1,2.3,1.7,4.1,1.7
		c0.8,0,1.5-0.1,2.2-0.3s1.4-0.5,2.1-0.8l0.4,3.3c-0.6,0.3-1.3,0.6-2.2,0.8C193.1,48.3,192.2,48.4,191.2,48.4z"/>
	<path class="st0" d="M200.7,56.8l4-9.8l-7.4-16.8h4.5l4.9,12.1l4.8-12.1h4.5l-11.1,26.6H200.7z"/>
</g>
<g id="Calque_2">
	<g>
		<path class="st0" d="M240.9,57.8c0,0-4.3-6.9,4.2-14c0,0,3.7-2.8,6.5-8s13.4-6.9,17.9-0.7c0,0,3.2,6.4,6.1,8.3
			c2.9,2,8.5,7.1,4.9,14.8c0,0-4.8,7.6-16.6,3.4c0,0-3.3-1.3-6.4,0.2C254.5,63.5,243.6,64.3,240.9,57.8z"/>
		<path class="st0" d="M242.2,19.2c0,0,0.2-7.7,9-12.8c0,0,6.3-3.1,7.1,7.9c0.9,10.9-2.1,15.1-7.2,16.1
			C251.1,30.4,242.7,32.1,242.2,19.2z"/>
		<path class="st0" d="M230.6,34.8c0,0-0.6-10.9,6.6-11.4c0,0,4.5,0.1,8.3,11c0,0,2.3,7.9-4.7,10.2C240.9,44.6,232,45.9,230.6,34.8z
			"/>
		<path class="st0" d="M279.2,19.3c0,0-0.2-7.7-9-12.8c0,0-6.3-3.1-7.1,7.9s2.1,15.1,7.2,16.1C270.4,30.5,278.7,32.2,279.2,19.3z"/>
		<path class="st0" d="M290.9,34.9c0,0,0.6-10.9-6.6-11.4c0,0-4.5,0.1-8.3,11c0,0-2.3,7.9,4.7,10.2
			C280.6,44.7,289.4,45.9,290.9,34.9z"/>
	</g>
	<g>
		<line class="st1" x1="260.7" y1="38.5" x2="260.7" y2="56.9"/>
		<line class="st1" x1="251.5" y1="47.7" x2="269.9" y2="47.7"/>
	</g>
</g>
</svg>
