<?xml version="1.0" encoding="utf-8"?>
<!-- Generator: Adobe Illustrator 24.3.0, SVG Export Plug-In . SVG Version: 6.00 Build 0)  -->
<svg version="1.1" xmlns="http://www.w3.org/2000/svg" xmlns:xlink="http://www.w3.org/1999/xlink" x="0px" y="0px"
	 viewBox="0 0 141.7 141.7" style="enable-background:new 0 0 141.7 141.7;" xml:space="preserve">
<style type="text/css">
	.st0{fill:#9C3127;}
	.st1{fill:#FFFFFF;stroke:#FFFFFF;stroke-width:1.2923;stroke-linecap:round;stroke-linejoin:round;stroke-miterlimit:10;}
	.st2{fill:none;stroke:#9C3127;stroke-width:3.8768;stroke-miterlimit:10;}
	.st3{fill:none;stroke:#9C3127;stroke-width:3.8768;stroke-linecap:round;stroke-linejoin:round;stroke-miterlimit:10;}
	.st4{fill:none;stroke:#9C3127;stroke-width:3.8768;stroke-linejoin:round;stroke-miterlimit:10;}
</style>
<g id="Calque_3">
	<circle class="st0" cx="70.8" cy="70.8" r="52.7"/>
</g>
<g id="Calque_2_1_">
	<g>
		<path class="st1" d="M51.8,101.6c0,0,0-9-0.6-13.6c-0.6-4.4-3.5-7.4-3.5-7.4c-3.5-4.5-5.6-10.1-5.6-16.2
			c0-14.7,12.4-26.8,27.7-26.8c12.1,0,24.3,8.1,26.1,18.1c0,0,0.1,5.9,2.5,8.8c2.3,2.8,8.1,10.7,3.4,11.5c-4.8,0.8-5.3,2.6-5.2,5.8
			c0.1,3.1,1.9,13.6-14.3,13.6c0,0-0.1,1.9-0.1,5.2C67.7,102.8,51.8,101.6,51.8,101.6z"/>
		<g>
			<circle class="st2" cx="59.9" cy="66.7" r="5.6"/>
			<line class="st2" x1="59.6" y1="56.9" x2="59.6" y2="61"/>
			<line class="st2" x1="59.6" y1="71.8" x2="59.6" y2="75.9"/>
			<line class="st2" x1="65.5" y1="66.3" x2="69.7" y2="66.3"/>
			<line class="st2" x1="49.8" y1="66.6" x2="53.9" y2="66.6"/>
			<line class="st2" x1="63.7" y1="63" x2="66.3" y2="59.6"/>
			<line class="st2" x1="56" y1="62.6" x2="53.3" y2="59.6"/>
			<line class="st2" x1="66.8" y1="73" x2="64" y2="70.1"/>
			<line class="st2" x1="53" y1="73.8" x2="55.6" y2="70.6"/>
		</g>
		<g>
			<circle class="st3" cx="76.3" cy="55.9" r="5.6"/>
			<line class="st4" x1="76" y1="46.2" x2="76" y2="50.3"/>
			<line class="st4" x1="76" y1="61" x2="76" y2="65.2"/>
			<line class="st4" x1="81.9" y1="55.5" x2="86.1" y2="55.5"/>
			<line class="st4" x1="66.2" y1="55.9" x2="70.3" y2="55.9"/>
			<line class="st4" x1="80.1" y1="52.1" x2="82.6" y2="48.9"/>
			<line class="st4" x1="72.4" y1="51.9" x2="69.5" y2="48.8"/>
			<line class="st4" x1="83.2" y1="62.2" x2="80.4" y2="59.2"/>
			<line class="st4" x1="69.4" y1="63.1" x2="72" y2="59.7"/>
		</g>
	</g>
</g>
</svg>
