<?xml version="1.0" encoding="utf-8"?>
<!-- Generator: Adobe Illustrator 24.3.0, SVG Export Plug-In . SVG Version: 6.00 Build 0)  -->
<svg version="1.1" xmlns="http://www.w3.org/2000/svg" xmlns:xlink="http://www.w3.org/1999/xlink" x="0px" y="0px"
	 viewBox="0 0 141.7 141.7" style="enable-background:new 0 0 141.7 141.7;" xml:space="preserve">
<style type="text/css">
	.st0{fill:#9C3127;}
	.st1{fill:#FFFFFF;}
</style>
<g id="Calque_3">
	<circle class="st0" cx="70.8" cy="70.8" r="52.7"/>
</g>
<g id="Calque_2">
</g>
<g id="Calque_1">
	<path id="Tracé_125" class="st1" d="M103.1,102.9c-1.8-8.2-19-16.3-22.4-17.9c-0.4-0.2-0.6-0.5-0.6-1l0.2-7.7V76
		c4.5-3.7,7.5-10.2,7.5-17.8c0-11.5-7-20.8-15.7-20.8s-15.7,9.3-15.7,20.8c-0.2,6.4,2.3,12.6,6.9,17.1c0.2,0.2,0.3,0.5,0.3,0.8
		l0.2,7.4c0.1,0.4-0.2,0.8-0.6,1c-3.5,1.6-21,9.9-22.6,18.2c-0.1,0.5,0.2,1.1,0.7,1.2c0.1,0,0.1,0,0.2,0l60.6,0.2
		C102.8,104.1,103.2,103.6,103.1,102.9C103.1,102.9,103.1,102.9,103.1,102.9z"/>
</g>
</svg>
