<?xml version="1.0" encoding="utf-8"?>
<!-- Generator: Adobe Illustrator 24.3.0, SVG Export Plug-In . SVG Version: 6.00 Build 0)  -->
<svg version="1.1" xmlns="http://www.w3.org/2000/svg" xmlns:xlink="http://www.w3.org/1999/xlink" x="0px" y="0px"
	 viewBox="0 0 179.1 105.5" style="enable-background:new 0 0 179.1 105.5;" xml:space="preserve">
<style type="text/css">
	.st0{fill:#EE7476;}
	.st1{display:none;}
</style>
<g id="Calque_1">
	<path class="st0" d="M0.2,1.1h122.5c29.9,0,54.4,23.2,54.4,51.6v0c0,28.4-24.5,51.6-54.4,51.6H0.2L0.2,1.1z"/>
	<g>
		<g>
			<path class="st0" d="M82.5,91.3c1,0.4,2,0.8,3,1.3c0.4-1.6,0.9-3.2,1.3-4.8c-0.2,0-0.4-0.1-0.7-0.2c0.2,0.1,0.4,0.2,0.6,0.3
				c-0.2-0.1-0.5-0.2-0.7-0.4c0.2,0.1,0.3,0.3,0.5,0.4c-0.2-0.2-0.4-0.4-0.6-0.6c0.1,0.2,0.3,0.3,0.4,0.5c-0.1-0.1-0.2-0.2-0.2-0.4
				c-0.5,1.2-1,2.4-1.5,3.7c0.2,0,0.5-0.1,0.7-0.1c0.3-0.1,0.6-0.2,0.9-0.4c0.3-0.2,0.5-0.4,0.6-0.7c0.2-0.3,0.3-0.6,0.3-0.9
				c0.1-0.3,0.1-0.7,0-1c-0.2-0.6-0.6-1.2-1.1-1.5c-0.2-0.1-0.4-0.2-0.6-0.3c-0.4-0.1-0.9-0.1-1.3,0c-0.2,0-0.5,0.1-0.7,0.1
				c-0.4,0.1-0.8,0.3-1.1,0.6c-0.2,0.2-0.4,0.5-0.5,0.8c-0.2,0.3-0.2,0.6-0.2,1c0,0.5,0.1,0.9,0.3,1.3c0.2,0.4,0.5,0.7,0.8,1.1
				c0.3,0.3,0.7,0.6,1,0.8c0.2,0.1,0.4,0.3,0.6,0.3c0.4,0.2,0.8,0.4,1.3,0.4c0.3,0.1,0.7,0.1,1,0c0.3,0,0.6-0.1,0.9-0.3
				c0.3-0.2,0.5-0.4,0.7-0.6c0.2-0.2,0.4-0.5,0.4-0.9c0.1-0.6,0.1-1.4-0.3-1.9c-0.1-0.2-0.3-0.3-0.4-0.5c-0.3-0.3-0.7-0.5-1.1-0.6
				c-1-0.4-2-0.8-3-1.3c-0.3-0.1-0.7-0.1-1,0c-0.3,0-0.6,0.1-0.9,0.3c-0.3,0.2-0.5,0.4-0.7,0.6c-0.2,0.2-0.4,0.5-0.4,0.9
				c-0.1,0.6-0.1,1.4,0.3,1.9c0.1,0.2,0.3,0.3,0.4,0.5C81.7,91,82.1,91.2,82.5,91.3L82.5,91.3z"/>
		</g>
	</g>
	<path class="st0" d="M80,78.7c0,0,1.4,8.3,10.3,8.1c8.9-0.3,42-0.3,42-0.3s7.7-0.5,8.4-8.4c0,0-0.9,8.9-2.7,9s-8.6,2-19.4,2.1
		s-35.7-1.7-35.7-1.7L80,78.7z"/>
</g>
<g id="Calque_2" class="st1">
	
		<image style="display:inline;overflow:visible;" width="527" height="993" xlink:href="../../../../../OneDrive/Desktop/tfa 2022-2023/preview1.png"  transform="matrix(0.1318 0 0 0.1318 10.6873 -36.4681)">
	</image>
	
		<image style="display:inline;overflow:visible;" width="493" height="943" xlink:href="../../../../../OneDrive/Desktop/tfa 2022-2023/preview2.png"  transform="matrix(0.1543 0 0 0.1543 72.6995 -49.7447)">
	</image>
</g>
</svg>
