<svg xmlns="http://www.w3.org/2000/svg" xmlns:xlink="http://www.w3.org/1999/xlink" width="944" zoomAndPan="magnify" viewBox="0 0 708.75 567.000005" height="755" preserveAspectRatio="xMidYMid meet" version="1.0"><defs><clipPath id="eed592b5b1"><path d="M 314 138 L 351 138 L 351 170 L 314 170 Z M 314 138 " clip-rule="nonzero"/></clipPath><clipPath id="bd262b66d9"><path d="M 47.402344 0 L 438.441406 136.460938 L 415.246094 202.929688 L 24.207031 66.46875 Z M 47.402344 0 " clip-rule="nonzero"/></clipPath><clipPath id="fc43305cd6"><path d="M 47.402344 0 L 438.441406 136.460938 L 415.246094 202.929688 L 24.207031 66.46875 Z M 47.402344 0 " clip-rule="nonzero"/></clipPath><clipPath id="0a51cf7ddd"><path d="M 110 34 L 145 34 L 145 67 L 110 67 Z M 110 34 " clip-rule="nonzero"/></clipPath><clipPath id="da435f937d"><path d="M 47.402344 0 L 438.441406 136.460938 L 415.246094 202.929688 L 24.207031 66.46875 Z M 47.402344 0 " clip-rule="nonzero"/></clipPath><clipPath id="44d66ac844"><path d="M 47.402344 0 L 438.441406 136.460938 L 415.246094 202.929688 L 24.207031 66.46875 Z M 47.402344 0 " clip-rule="nonzero"/></clipPath><clipPath id="7213f2cc05"><path d="M 29 39 L 66 39 L 66 72 L 29 72 Z M 29 39 " clip-rule="nonzero"/></clipPath><clipPath id="ecbb139461"><path d="M 47.402344 0 L 438.441406 136.460938 L 415.246094 202.929688 L 24.207031 66.46875 Z M 47.402344 0 " clip-rule="nonzero"/></clipPath><clipPath id="8c7c1b691e"><path d="M 47.402344 0 L 438.441406 136.460938 L 415.246094 202.929688 L 24.207031 66.46875 Z M 47.402344 0 " clip-rule="nonzero"/></clipPath><clipPath id="7f642e0cf9"><path d="M 251 82 L 286 82 L 286 115 L 251 115 Z M 251 82 " clip-rule="nonzero"/></clipPath><clipPath id="10933be1af"><path d="M 47.402344 0 L 438.441406 136.460938 L 415.246094 202.929688 L 24.207031 66.46875 Z M 47.402344 0 " clip-rule="nonzero"/></clipPath><clipPath id="600e87bebb"><path d="M 47.402344 0 L 438.441406 136.460938 L 415.246094 202.929688 L 24.207031 66.46875 Z M 47.402344 0 " clip-rule="nonzero"/></clipPath><clipPath id="42a9d970e6"><path d="M 168 82 L 205 82 L 205 114 L 168 114 Z M 168 82 " clip-rule="nonzero"/></clipPath><clipPath id="0c89b86af8"><path d="M 47.402344 0 L 438.441406 136.460938 L 415.246094 202.929688 L 24.207031 66.46875 Z M 47.402344 0 " clip-rule="nonzero"/></clipPath><clipPath id="1f1a295c38"><path d="M 47.402344 0 L 438.441406 136.460938 L 415.246094 202.929688 L 24.207031 66.46875 Z M 47.402344 0 " clip-rule="nonzero"/></clipPath><clipPath id="cbb5dc2c07"><path d="M 397 132 L 433 132 L 433 165 L 397 165 Z M 397 132 " clip-rule="nonzero"/></clipPath><clipPath id="b5a8653146"><path d="M 47.402344 0 L 438.441406 136.460938 L 415.246094 202.929688 L 24.207031 66.46875 Z M 47.402344 0 " clip-rule="nonzero"/></clipPath><clipPath id="9ba7a65ff1"><path d="M 47.402344 0 L 438.441406 136.460938 L 415.246094 202.929688 L 24.207031 66.46875 Z M 47.402344 0 " clip-rule="nonzero"/></clipPath><clipPath id="0bc713fb01"><path d="M 519 158 L 554 158 L 554 191 L 519 191 Z M 519 158 " clip-rule="nonzero"/></clipPath><clipPath id="338c0a8c5d"><path d="M 443.492188 156.496094 L 857.53125 146.257812 L 859.269531 216.636719 L 445.230469 226.875 Z M 443.492188 156.496094 " clip-rule="nonzero"/></clipPath><clipPath id="a340da8022"><path d="M 443.492188 156.496094 L 857.53125 146.257812 L 859.269531 216.636719 L 445.230469 226.875 Z M 443.492188 156.496094 " clip-rule="nonzero"/></clipPath><clipPath id="3aaab015d7"><path d="M 446 191 L 481 191 L 481 225 L 446 225 Z M 446 191 " clip-rule="nonzero"/></clipPath><clipPath id="1292aa283b"><path d="M 443.492188 156.496094 L 857.53125 146.257812 L 859.269531 216.636719 L 445.230469 226.875 Z M 443.492188 156.496094 " clip-rule="nonzero"/></clipPath><clipPath id="dbb0fb8821"><path d="M 443.492188 156.496094 L 857.53125 146.257812 L 859.269531 216.636719 L 445.230469 226.875 Z M 443.492188 156.496094 " clip-rule="nonzero"/></clipPath><clipPath id="c8167d2e1d"><path d="M 668 153 L 703 153 L 703 186 L 668 186 Z M 668 153 " clip-rule="nonzero"/></clipPath><clipPath id="6331b24a58"><path d="M 443.492188 156.496094 L 857.53125 146.257812 L 859.269531 216.636719 L 445.230469 226.875 Z M 443.492188 156.496094 " clip-rule="nonzero"/></clipPath><clipPath id="91d2eaa26c"><path d="M 443.492188 156.496094 L 857.53125 146.257812 L 859.269531 216.636719 L 445.230469 226.875 Z M 443.492188 156.496094 " clip-rule="nonzero"/></clipPath><clipPath id="ee2b6d7411"><path d="M 591 181 L 625 181 L 625 215 L 591 215 Z M 591 181 " clip-rule="nonzero"/></clipPath><clipPath id="303dae4439"><path d="M 443.492188 156.496094 L 857.53125 146.257812 L 859.269531 216.636719 L 445.230469 226.875 Z M 443.492188 156.496094 " clip-rule="nonzero"/></clipPath><clipPath id="e8185a6c10"><path d="M 443.492188 156.496094 L 857.53125 146.257812 L 859.269531 216.636719 L 445.230469 226.875 Z M 443.492188 156.496094 " clip-rule="nonzero"/></clipPath><clipPath id="cf66a422d5"><path d="M 433 352 L 468 352 L 468 386 L 433 386 Z M 433 352 " clip-rule="nonzero"/></clipPath><clipPath id="a8df2a7091"><path d="M 774.351562 351.621094 L 369.226562 437.6875 L 354.597656 368.824219 L 759.722656 282.757812 Z M 774.351562 351.621094 " clip-rule="nonzero"/></clipPath><clipPath id="acea2cfd63"><path d="M 774.351562 351.621094 L 369.226562 437.6875 L 354.597656 368.824219 L 759.722656 282.757812 Z M 774.351562 351.621094 " clip-rule="nonzero"/></clipPath><clipPath id="73dd5c4b94"><path d="M 662 335 L 698 335 L 698 367 L 662 367 Z M 662 335 " clip-rule="nonzero"/></clipPath><clipPath id="c7e49a3dc6"><path d="M 774.351562 351.621094 L 369.226562 437.6875 L 354.597656 368.824219 L 759.722656 282.757812 Z M 774.351562 351.621094 " clip-rule="nonzero"/></clipPath><clipPath id="04d56e09e7"><path d="M 774.351562 351.621094 L 369.226562 437.6875 L 354.597656 368.824219 L 759.722656 282.757812 Z M 774.351562 351.621094 " clip-rule="nonzero"/></clipPath><clipPath id="46a36e85a1"><path d="M 516 366 L 552 366 L 552 399 L 516 399 Z M 516 366 " clip-rule="nonzero"/></clipPath><clipPath id="30a16d407a"><path d="M 774.351562 351.621094 L 369.226562 437.6875 L 354.597656 368.824219 L 759.722656 282.757812 Z M 774.351562 351.621094 " clip-rule="nonzero"/></clipPath><clipPath id="6daf470b81"><path d="M 774.351562 351.621094 L 369.226562 437.6875 L 354.597656 368.824219 L 759.722656 282.757812 Z M 774.351562 351.621094 " clip-rule="nonzero"/></clipPath><clipPath id="6ceea28459"><path d="M 587 324 L 622 324 L 622 358 L 587 358 Z M 587 324 " clip-rule="nonzero"/></clipPath><clipPath id="f5de3e073e"><path d="M 774.351562 351.621094 L 369.226562 437.6875 L 354.597656 368.824219 L 759.722656 282.757812 Z M 774.351562 351.621094 " clip-rule="nonzero"/></clipPath><clipPath id="36951c5455"><path d="M 774.351562 351.621094 L 369.226562 437.6875 L 354.597656 368.824219 L 759.722656 282.757812 Z M 774.351562 351.621094 " clip-rule="nonzero"/></clipPath><clipPath id="babff5815b"><path d="M 365 400 L 401 400 L 401 433 L 365 433 Z M 365 400 " clip-rule="nonzero"/></clipPath><clipPath id="ce29eb3105"><path d="M 774.351562 351.621094 L 369.226562 437.6875 L 354.597656 368.824219 L 759.722656 282.757812 Z M 774.351562 351.621094 " clip-rule="nonzero"/></clipPath><clipPath id="d33abd6ba2"><path d="M 774.351562 351.621094 L 369.226562 437.6875 L 354.597656 368.824219 L 759.722656 282.757812 Z M 774.351562 351.621094 " clip-rule="nonzero"/></clipPath><clipPath id="af5193c7b8"><path d="M 13 424 L 48 424 L 48 457 L 13 457 Z M 13 424 " clip-rule="nonzero"/></clipPath><clipPath id="485025e378"><path d="M 354.324219 423.375 L -50.800781 509.441406 L -65.429688 440.578125 L 339.695312 354.511719 Z M 354.324219 423.375 " clip-rule="nonzero"/></clipPath><clipPath id="5d0ff23212"><path d="M 354.324219 423.375 L -50.800781 509.441406 L -65.429688 440.578125 L 339.695312 354.511719 Z M 354.324219 423.375 " clip-rule="nonzero"/></clipPath><clipPath id="646a7b2b75"><path d="M 242 407 L 278 407 L 278 439 L 242 439 Z M 242 407 " clip-rule="nonzero"/></clipPath><clipPath id="33906e5813"><path d="M 354.324219 423.375 L -50.800781 509.441406 L -65.429688 440.578125 L 339.695312 354.511719 Z M 354.324219 423.375 " clip-rule="nonzero"/></clipPath><clipPath id="52e45e325b"><path d="M 354.324219 423.375 L -50.800781 509.441406 L -65.429688 440.578125 L 339.695312 354.511719 Z M 354.324219 423.375 " clip-rule="nonzero"/></clipPath><clipPath id="3690945b74"><path d="M 308 360 L 342 360 L 342 394 L 308 394 Z M 308 360 " clip-rule="nonzero"/></clipPath><clipPath id="ee5989bb2b"><path d="M 354.324219 423.375 L -50.800781 509.441406 L -65.429688 440.578125 L 339.695312 354.511719 Z M 354.324219 423.375 " clip-rule="nonzero"/></clipPath><clipPath id="1520f5298d"><path d="M 354.324219 423.375 L -50.800781 509.441406 L -65.429688 440.578125 L 339.695312 354.511719 Z M 354.324219 423.375 " clip-rule="nonzero"/></clipPath><clipPath id="f2852decba"><path d="M 96 438 L 132 438 L 132 471 L 96 471 Z M 96 438 " clip-rule="nonzero"/></clipPath><clipPath id="02f13358c8"><path d="M 354.324219 423.375 L -50.800781 509.441406 L -65.429688 440.578125 L 339.695312 354.511719 Z M 354.324219 423.375 " clip-rule="nonzero"/></clipPath><clipPath id="42ef88a8c8"><path d="M 354.324219 423.375 L -50.800781 509.441406 L -65.429688 440.578125 L 339.695312 354.511719 Z M 354.324219 423.375 " clip-rule="nonzero"/></clipPath><clipPath id="0eb9391eda"><path d="M 167 396 L 202 396 L 202 430 L 167 430 Z M 167 396 " clip-rule="nonzero"/></clipPath><clipPath id="aaa5ebca17"><path d="M 354.324219 423.375 L -50.800781 509.441406 L -65.429688 440.578125 L 339.695312 354.511719 Z M 354.324219 423.375 " clip-rule="nonzero"/></clipPath><clipPath id="c039930bd7"><path d="M 354.324219 423.375 L -50.800781 509.441406 L -65.429688 440.578125 L 339.695312 354.511719 Z M 354.324219 423.375 " clip-rule="nonzero"/></clipPath></defs><g clip-path="url(#eed592b5b1)"><g clip-path="url(#bd262b66d9)"><g clip-path="url(#fc43305cd6)"><path fill="#f2d6b3" d="M 345.230469 165.484375 C 345.257812 165.421875 345.285156 165.355469 345.3125 165.289062 C 346.082031 162.566406 344.019531 159.863281 341.710938 158.492188 C 339.667969 157.140625 336.410156 156.714844 334.792969 158.808594 C 334.5625 159.117188 334.421875 159.480469 334.355469 159.855469 C 333.964844 163.132812 336.777344 166.046875 339.804688 167.015625 C 341.691406 167.785156 344.328125 167.410156 345.230469 165.484375 Z M 350.257812 154.789062 C 350.972656 153.210938 349.933594 151.207031 348.523438 150.21875 C 345.746094 148.226562 341.332031 147.738281 338.886719 150.34375 C 338.683594 150.597656 338.535156 150.894531 338.4375 151.207031 C 337.792969 153.453125 339.757812 155.492188 341.734375 156.34375 C 344.308594 157.519531 347.878906 157.660156 349.839844 155.4375 C 350.019531 155.230469 350.15625 155.015625 350.257812 154.789062 Z M 333.21875 168.046875 C 334.355469 165.265625 332.480469 162.074219 330.023438 160.554688 C 328.332031 159.292969 325.367188 159.046875 324.21875 161.046875 C 322.859375 163.949219 325.078125 167.453125 327.765625 168.859375 C 329.484375 169.917969 332.171875 169.949219 333.21875 168.046875 Z M 344.027344 144.128906 C 344.59375 142.984375 344.433594 141.511719 343.414062 140.554688 C 340.6875 137.996094 335.648438 138.03125 333.371094 141.011719 C 332.460938 142.273438 332.964844 144.015625 334.113281 144.996094 C 336.566406 147.082031 340.542969 147.171875 343.035156 145.269531 C 343.472656 144.972656 343.804688 144.578125 344.027344 144.128906 Z M 332.417969 153.433594 C 333.5 151.179688 333.433594 148.324219 332.386719 146.015625 C 331.113281 143.453125 329.363281 141.011719 327.035156 139.261719 C 325.480469 137.75 322.675781 138.105469 321.734375 140.023438 C 320.546875 142.304688 321.21875 145.085938 320.226562 147.449219 C 319.589844 149.550781 317.699219 150.792969 316.164062 152.214844 C 314.785156 153.390625 314.035156 155.582031 315.320312 157.148438 C 316.71875 158.566406 318.945312 158.554688 320.796875 158.550781 C 323.949219 158.238281 327.28125 157.878906 329.984375 156.164062 C 331.082031 155.488281 331.886719 154.53125 332.417969 153.433594 Z M 332.417969 153.433594 " fill-opacity="1" fill-rule="nonzero"/></g></g></g><g clip-path="url(#0a51cf7ddd)"><g clip-path="url(#da435f937d)"><g clip-path="url(#44d66ac844)"><path fill="#f2d6b3" d="M 142.316406 59.085938 C 142.332031 59.019531 142.34375 58.949219 142.355469 58.878906 C 142.503906 56.054688 139.898438 53.878906 137.34375 53.058594 C 135.050781 52.195312 131.777344 52.503906 130.660156 54.902344 C 130.503906 55.253906 130.449219 55.640625 130.464844 56.019531 C 130.804688 59.300781 134.191406 61.515625 137.359375 61.785156 C 139.371094 62.117188 141.863281 61.167969 142.316406 59.085938 Z M 144.867188 47.550781 C 145.21875 45.851562 143.761719 44.128906 142.167969 43.480469 C 139.019531 42.15625 134.601562 42.660156 132.792969 45.742188 C 132.648438 46.035156 132.566406 46.355469 132.542969 46.683594 C 132.40625 49.015625 134.777344 50.566406 136.890625 50.957031 C 139.664062 51.527344 143.179688 50.875 144.605469 48.273438 C 144.734375 48.035156 144.820312 47.792969 144.867188 47.550781 Z M 131.160156 64.253906 C 131.65625 61.292969 129.125 58.597656 126.390625 57.664062 C 124.460938 56.808594 121.515625 57.230469 120.832031 59.429688 C 120.148438 62.5625 123.085938 65.484375 126.019531 66.257812 C 127.925781 66.90625 130.558594 66.339844 131.160156 64.253906 Z M 136.441406 38.542969 C 136.742188 37.304688 136.257812 35.90625 135.054688 35.199219 C 131.828125 33.308594 126.917969 34.464844 125.355469 37.875 C 124.742188 39.304688 125.617188 40.890625 126.953125 41.589844 C 129.808594 43.078125 133.710938 42.28125 135.722656 39.875 C 136.085938 39.492188 136.324219 39.027344 136.441406 38.542969 Z M 127.160156 50.1875 C 127.71875 47.753906 127.023438 44.984375 125.496094 42.96875 C 123.683594 40.753906 121.441406 38.765625 118.78125 37.574219 C 116.933594 36.449219 114.273438 37.417969 113.777344 39.496094 C 113.121094 41.984375 114.390625 44.546875 113.941406 47.066406 C 113.785156 49.257812 112.210938 50.886719 111.027344 52.617188 C 109.941406 54.070312 109.691406 56.367188 111.292969 57.609375 C 112.96875 58.679688 115.136719 58.175781 116.945312 57.757812 C 119.953125 56.753906 123.125 55.664062 125.386719 53.394531 C 126.308594 52.488281 126.882812 51.378906 127.160156 50.1875 Z M 127.160156 50.1875 " fill-opacity="1" fill-rule="nonzero"/></g></g></g><g clip-path="url(#7213f2cc05)"><g clip-path="url(#ecbb139461)"><g clip-path="url(#8c7c1b691e)"><path fill="#f2d6b3" d="M 59.882812 67.460938 C 59.914062 67.402344 59.941406 67.335938 59.972656 67.273438 C 60.820312 64.570312 58.839844 61.808594 56.574219 60.371094 C 54.570312 58.957031 51.328125 58.433594 49.648438 60.476562 C 49.410156 60.777344 49.257812 61.140625 49.179688 61.511719 C 48.695312 64.773438 51.417969 67.773438 54.414062 68.832031 C 56.277344 69.660156 58.925781 69.363281 59.882812 67.460938 Z M 65.226562 56.925781 C 65.988281 55.367188 65.007812 53.332031 63.628906 52.300781 C 60.910156 50.226562 56.511719 49.605469 53.996094 52.136719 C 53.785156 52.386719 53.625 52.675781 53.519531 52.988281 C 52.804688 55.214844 54.710938 57.3125 56.660156 58.222656 C 59.199219 59.472656 62.761719 59.722656 64.789062 57.558594 C 64.972656 57.359375 65.117188 57.148438 65.226562 56.925781 Z M 47.800781 69.664062 C 49.019531 66.921875 47.242188 63.671875 44.832031 62.078125 C 43.175781 60.765625 40.222656 60.433594 39.015625 62.394531 C 37.570312 65.257812 39.683594 68.828125 42.328125 70.316406 C 44.011719 71.425781 46.699219 71.535156 47.800781 69.664062 Z M 59.316406 46.078125 C 59.917969 44.953125 59.800781 43.476562 58.808594 42.488281 C 56.160156 39.847656 51.121094 39.734375 48.761719 42.644531 C 47.8125 43.878906 48.265625 45.632812 49.378906 46.648438 C 51.773438 48.804688 55.746094 49.015625 58.292969 47.191406 C 58.738281 46.90625 59.082031 46.519531 59.316406 46.078125 Z M 47.4375 55.03125 C 48.585938 52.8125 48.601562 49.953125 47.628906 47.617188 C 46.429688 45.015625 44.753906 42.523438 42.476562 40.703125 C 40.96875 39.144531 38.15625 39.414062 37.15625 41.304688 C 35.902344 43.550781 36.492188 46.351562 35.429688 48.683594 C 34.730469 50.765625 32.804688 51.949219 31.230469 53.328125 C 29.8125 54.460938 29 56.625 30.238281 58.230469 C 31.59375 59.691406 33.820312 59.746094 35.667969 59.796875 C 38.832031 59.578125 42.167969 59.320312 44.921875 57.691406 C 46.042969 57.046875 46.875 56.113281 47.4375 55.03125 Z M 47.4375 55.03125 " fill-opacity="1" fill-rule="nonzero"/></g></g></g><g clip-path="url(#7f642e0cf9)"><g clip-path="url(#10933be1af)"><g clip-path="url(#600e87bebb)"><path fill="#f2d6b3" d="M 283.882812 106.308594 C 283.894531 106.242188 283.902344 106.171875 283.90625 106.101562 C 283.882812 103.273438 281.148438 101.261719 278.546875 100.601562 C 276.207031 99.878906 272.957031 100.390625 271.988281 102.855469 C 271.851562 103.210938 271.820312 103.601562 271.859375 103.980469 C 272.402344 107.230469 275.917969 109.234375 279.097656 109.308594 C 281.125 109.515625 283.554688 108.414062 283.882812 106.308594 Z M 285.722656 94.640625 C 285.96875 92.925781 284.410156 91.296875 282.777344 90.746094 C 279.554688 89.617188 275.175781 90.394531 273.554688 93.582031 C 273.433594 93.882812 273.371094 94.207031 273.367188 94.535156 C 273.371094 96.871094 275.832031 98.273438 277.96875 98.53125 C 280.773438 98.933594 284.242188 98.0625 285.503906 95.378906 C 285.617188 95.132812 285.6875 94.886719 285.722656 94.640625 Z M 273.058594 112.152344 C 273.375 109.167969 270.679688 106.632812 267.894531 105.871094 C 265.914062 105.136719 263 105.738281 262.453125 107.976562 C 261.960938 111.144531 265.074219 113.882812 268.046875 114.472656 C 269.992188 115.003906 272.585938 114.273438 273.058594 112.152344 Z M 276.757812 86.171875 C 276.980469 84.917969 276.414062 83.550781 275.167969 82.921875 C 271.832031 81.234375 267.003906 82.691406 265.648438 86.1875 C 265.128906 87.65625 266.097656 89.183594 267.472656 89.796875 C 270.414062 91.105469 274.261719 90.074219 276.125 87.546875 C 276.460938 87.140625 276.671875 86.664062 276.757812 86.171875 Z M 268.203125 98.367188 C 268.617188 95.902344 267.75 93.183594 266.105469 91.265625 C 264.160156 89.167969 261.796875 87.320312 259.070312 86.296875 C 257.15625 85.285156 254.5625 86.414062 254.191406 88.519531 C 253.6875 91.042969 255.113281 93.523438 254.820312 96.066406 C 254.792969 98.261719 253.324219 99.984375 252.25 101.78125 C 251.25 103.300781 251.144531 105.609375 252.820312 106.746094 C 254.558594 107.714844 256.691406 107.078125 258.46875 106.550781 C 261.414062 105.359375 264.511719 104.078125 266.628906 101.675781 C 267.496094 100.714844 268.003906 99.570312 268.203125 98.367188 Z M 268.203125 98.367188 " fill-opacity="1" fill-rule="nonzero"/></g></g></g><g clip-path="url(#42a9d970e6)"><g clip-path="url(#0c89b86af8)"><g clip-path="url(#1f1a295c38)"><path fill="#f2d6b3" d="M 199.164062 109.226562 C 199.191406 109.164062 199.21875 109.097656 199.246094 109.035156 C 200.015625 106.308594 197.953125 103.605469 195.644531 102.238281 C 193.601562 100.882812 190.34375 100.457031 188.726562 102.550781 C 188.496094 102.855469 188.355469 103.222656 188.289062 103.597656 C 187.898438 106.871094 190.710938 109.789062 193.738281 110.757812 C 195.625 111.527344 198.261719 111.15625 199.164062 109.226562 Z M 204.195312 98.535156 C 204.910156 96.957031 203.871094 94.953125 202.460938 93.960938 C 199.683594 91.96875 195.269531 91.480469 192.824219 94.085938 C 192.621094 94.339844 192.472656 94.636719 192.375 94.949219 C 191.726562 97.195312 193.695312 99.234375 195.667969 100.085938 C 198.246094 101.261719 201.8125 101.40625 203.777344 99.179688 C 203.953125 98.976562 204.09375 98.761719 204.195312 98.535156 Z M 187.148438 111.785156 C 188.289062 109.007812 186.414062 105.8125 183.957031 104.292969 C 182.265625 103.03125 179.300781 102.785156 178.152344 104.78125 C 176.792969 107.683594 179.007812 111.191406 181.699219 112.597656 C 183.414062 113.65625 186.105469 113.6875 187.148438 111.785156 Z M 197.96875 87.871094 C 198.535156 86.730469 198.375 85.257812 197.355469 84.300781 C 194.628906 81.738281 189.589844 81.773438 187.3125 84.753906 C 186.402344 86.015625 186.90625 87.753906 188.050781 88.734375 C 190.503906 90.820312 194.484375 90.914062 196.976562 89.011719 C 197.414062 88.71875 197.746094 88.320312 197.96875 87.871094 Z M 186.355469 97.171875 C 187.4375 94.917969 187.371094 92.0625 186.328125 89.757812 C 185.050781 87.191406 183.304688 84.75 180.976562 83 C 179.421875 81.484375 176.617188 81.839844 175.675781 83.757812 C 174.488281 86.039062 175.160156 88.824219 174.164062 91.183594 C 173.527344 93.285156 171.636719 94.527344 170.101562 95.949219 C 168.71875 97.125 167.972656 99.3125 169.257812 100.882812 C 170.652344 102.300781 172.878906 102.289062 174.730469 102.285156 C 177.886719 101.972656 181.214844 101.617188 183.917969 99.90625 C 185.019531 99.226562 185.824219 98.269531 186.355469 97.171875 Z M 186.355469 97.171875 " fill-opacity="1" fill-rule="nonzero"/></g></g></g><g clip-path="url(#cbb5dc2c07)"><g clip-path="url(#b5a8653146)"><g clip-path="url(#9ba7a65ff1)"><path fill="#f2d6b3" d="M 429.90625 157.421875 C 429.921875 157.351562 429.933594 157.285156 429.945312 157.214844 C 430.109375 154.390625 427.515625 152.199219 424.964844 151.363281 C 422.679688 150.488281 419.402344 150.777344 418.273438 153.171875 C 418.113281 153.519531 418.054688 153.90625 418.070312 154.289062 C 418.394531 157.570312 421.769531 159.804688 424.933594 160.09375 C 426.945312 160.433594 429.441406 159.496094 429.90625 157.417969 Z M 432.519531 145.898438 C 432.878906 144.203125 431.433594 142.472656 429.84375 141.8125 C 426.699219 140.46875 422.28125 140.953125 420.453125 144.023438 C 420.3125 144.316406 420.226562 144.636719 420.203125 144.960938 C 420.050781 147.296875 422.414062 148.859375 424.523438 149.261719 C 427.296875 149.847656 430.8125 149.214844 432.25 146.617188 C 432.382812 146.378906 432.46875 146.140625 432.519531 145.898438 Z M 418.71875 162.527344 C 419.234375 159.566406 416.714844 156.859375 413.988281 155.910156 C 412.0625 155.042969 409.113281 155.449219 408.421875 157.644531 C 407.71875 160.773438 410.640625 163.714844 413.570312 164.503906 C 415.472656 165.164062 418.109375 164.609375 418.71875 162.527344 Z M 424.140625 136.847656 C 424.449219 135.609375 423.972656 134.207031 422.773438 133.492188 C 419.558594 131.585938 414.640625 132.714844 413.058594 136.113281 C 412.441406 137.542969 413.308594 139.132812 414.636719 139.839844 C 417.484375 141.34375 421.390625 140.570312 423.417969 138.171875 C 423.78125 137.789062 424.019531 137.332031 424.140625 136.847656 Z M 414.796875 148.441406 C 415.371094 146.007812 414.691406 143.234375 413.171875 141.210938 C 411.375 138.988281 409.140625 136.984375 406.488281 135.78125 C 404.644531 134.640625 401.980469 135.597656 401.472656 137.671875 C 400.804688 140.15625 402.058594 142.726562 401.597656 145.246094 C 401.425781 147.433594 399.847656 149.054688 398.652344 150.777344 C 397.558594 152.226562 397.296875 154.523438 398.890625 155.773438 C 400.558594 156.851562 402.734375 156.359375 404.542969 155.953125 C 407.554688 154.964844 410.734375 153.890625 413.003906 151.636719 C 413.933594 150.734375 414.515625 149.628906 414.796875 148.441406 Z M 414.796875 148.441406 " fill-opacity="1" fill-rule="nonzero"/></g></g></g><g clip-path="url(#0bc713fb01)"><g clip-path="url(#338c0a8c5d)"><g clip-path="url(#a340da8022)"><path fill="#f2d6b3" d="M 553.148438 178.304688 C 553.136719 178.238281 553.125 178.167969 553.109375 178.097656 C 552.253906 175.402344 549.046875 174.285156 546.367188 174.417969 C 543.917969 174.417969 540.960938 175.863281 540.761719 178.503906 C 540.738281 178.886719 540.824219 179.265625 540.972656 179.617188 C 542.449219 182.566406 546.402344 183.445312 549.460938 182.582031 C 551.460938 182.179688 553.457031 180.410156 553.148438 178.304688 Z M 551.464844 166.609375 C 551.195312 164.898438 549.222656 163.800781 547.503906 163.753906 C 544.085938 163.625 540.132812 165.65625 539.527344 169.179688 C 539.5 169.503906 539.535156 169.832031 539.628906 170.144531 C 540.324219 172.378906 543.085938 172.992188 545.203125 172.613281 C 548 172.167969 551.058594 170.316406 551.472656 167.378906 C 551.507812 167.109375 551.503906 166.855469 551.464844 166.609375 Z M 544.527344 187.078125 C 543.949219 184.128906 540.628906 182.5 537.742188 182.589844 C 535.632812 182.472656 533.027344 183.90625 533.164062 186.207031 C 533.625 189.378906 537.40625 191.078125 540.425781 190.765625 C 542.441406 190.699219 544.703125 189.238281 544.527344 187.078125 Z M 540.402344 161.15625 C 540.246094 159.890625 539.300781 158.75 537.921875 158.515625 C 534.238281 157.886719 530.050781 160.699219 529.792969 164.441406 C 529.726562 165.996094 531.101562 167.167969 532.597656 167.351562 C 535.796875 167.738281 539.167969 165.617188 540.199219 162.65625 C 540.402344 162.167969 540.460938 161.652344 540.402344 161.15625 Z M 535.824219 175.328125 C 535.488281 172.847656 533.863281 170.503906 531.722656 169.15625 C 529.246094 167.722656 526.445312 166.652344 523.539062 166.476562 C 521.40625 166.074219 519.261719 167.917969 519.53125 170.039062 C 519.792969 172.601562 521.886719 174.550781 522.355469 177.066406 C 522.980469 179.171875 522.085938 181.253906 521.585938 183.285156 C 521.082031 185.03125 521.660156 187.269531 523.59375 187.863281 C 525.539062 188.277344 527.394531 187.039062 528.9375 186.011719 C 531.398438 184.007812 533.980469 181.871094 535.296875 178.953125 C 535.839844 177.777344 535.988281 176.535156 535.824219 175.328125 Z M 535.824219 175.328125 " fill-opacity="1" fill-rule="nonzero"/></g></g></g><g clip-path="url(#3aaab015d7)"><g clip-path="url(#1292aa283b)"><g clip-path="url(#dbb0fb8821)"><path fill="#f2d6b3" d="M 478.964844 215.21875 C 478.972656 215.152344 478.976562 215.082031 478.980469 215.011719 C 478.820312 212.183594 475.996094 210.296875 473.367188 209.75 C 470.996094 209.136719 467.773438 209.789062 466.925781 212.292969 C 466.808594 212.660156 466.792969 213.050781 466.851562 213.425781 C 467.546875 216.652344 471.152344 218.496094 474.332031 218.429688 C 476.367188 218.546875 478.738281 217.335938 478.964844 215.21875 Z M 480.246094 203.476562 C 480.414062 201.75 478.777344 200.191406 477.121094 199.710938 C 473.847656 198.730469 469.515625 199.699219 468.050781 202.957031 C 467.941406 203.265625 467.894531 203.59375 467.90625 203.917969 C 468.023438 206.253906 470.546875 207.546875 472.6875 207.710938 C 475.507812 207.984375 478.929688 206.960938 480.0625 204.222656 C 480.164062 203.96875 480.226562 203.722656 480.246094 203.476562 Z M 468.433594 221.542969 C 468.609375 218.542969 465.800781 216.132812 462.980469 215.492188 C 460.972656 214.847656 458.089844 215.578125 457.648438 217.839844 C 457.308594 221.027344 460.542969 223.625 463.542969 224.082031 C 465.511719 224.523438 468.066406 223.679688 468.433594 221.542969 Z M 470.894531 195.410156 C 471.058594 194.144531 470.425781 192.804688 469.152344 192.230469 C 465.742188 190.695312 460.988281 192.363281 459.804688 195.917969 C 459.351562 197.410156 460.394531 198.890625 461.796875 199.445312 C 464.796875 200.625 468.585938 199.417969 470.328125 196.8125 C 470.644531 196.390625 470.828125 195.90625 470.894531 195.410156 Z M 462.933594 207.976562 C 463.226562 205.496094 462.234375 202.816406 460.5 200.972656 C 458.457031 198.960938 456.011719 197.222656 453.242188 196.320312 C 451.277344 195.394531 448.742188 196.636719 448.472656 198.757812 C 448.09375 201.304688 449.632812 203.71875 449.460938 206.273438 C 449.539062 208.46875 448.15625 210.257812 447.167969 212.101562 C 446.242188 213.660156 446.246094 215.972656 447.972656 217.039062 C 449.753906 217.925781 451.855469 217.195312 453.605469 216.589844 C 456.484375 215.269531 459.519531 213.847656 461.519531 211.351562 C 462.339844 210.355469 462.789062 209.191406 462.933594 207.976562 Z M 462.933594 207.976562 " fill-opacity="1" fill-rule="nonzero"/></g></g></g><g clip-path="url(#c8167d2e1d)"><g clip-path="url(#6331b24a58)"><g clip-path="url(#91d2eaa26c)"><path fill="#f2d6b3" d="M 702.269531 172.5625 C 702.257812 172.492188 702.238281 172.425781 702.21875 172.359375 C 701.199219 169.71875 697.929688 168.800781 695.261719 169.101562 C 692.820312 169.253906 689.957031 170.875 689.921875 173.523438 C 689.921875 173.90625 690.027344 174.28125 690.199219 174.621094 C 691.851562 177.472656 695.851562 178.105469 698.851562 177.054688 C 700.820312 176.535156 702.707031 174.644531 702.269531 172.5625 Z M 699.875 160.992188 C 699.503906 159.300781 697.46875 158.324219 695.746094 158.386719 C 692.332031 158.46875 688.507812 160.738281 688.117188 164.292969 C 688.109375 164.621094 688.164062 164.945312 688.277344 165.253906 C 689.105469 167.4375 691.902344 167.882812 693.992188 167.371094 C 696.757812 166.753906 699.695312 164.71875 699.929688 161.761719 C 699.949219 161.488281 699.929688 161.234375 699.875 160.992188 Z M 694.203125 181.847656 C 693.445312 178.941406 690.03125 177.523438 687.15625 177.789062 C 685.042969 177.800781 682.527344 179.390625 682.808594 181.679688 C 683.460938 184.816406 687.339844 186.28125 690.332031 185.78125 C 692.339844 185.59375 694.507812 183.996094 694.203125 181.847656 Z M 688.5 156.230469 C 688.269531 154.976562 687.257812 153.898438 685.867188 153.75 C 682.152344 153.347656 678.144531 156.414062 678.113281 160.164062 C 678.140625 161.71875 679.589844 162.808594 681.089844 162.898438 C 684.304688 163.085938 687.539062 160.761719 688.394531 157.738281 C 688.5625 157.242188 688.59375 156.722656 688.5 156.230469 Z M 684.796875 170.660156 C 684.3125 168.207031 682.546875 165.964844 680.328125 164.753906 C 677.769531 163.476562 674.90625 162.582031 671.992188 162.585938 C 669.84375 162.3125 667.816406 164.285156 668.210938 166.386719 C 668.632812 168.925781 670.839844 170.742188 671.460938 173.226562 C 672.210938 175.289062 671.445312 177.421875 671.074219 179.480469 C 670.675781 181.253906 671.390625 183.453125 673.355469 183.929688 C 675.324219 184.21875 677.097656 182.867188 678.574219 181.75 C 680.910156 179.597656 683.355469 177.304688 684.492188 174.308594 C 684.964844 173.105469 685.035156 171.855469 684.796875 170.65625 Z M 684.796875 170.660156 " fill-opacity="1" fill-rule="nonzero"/></g></g></g><g clip-path="url(#ee2b6d7411)"><g clip-path="url(#303dae4439)"><g clip-path="url(#e8185a6c10)"><path fill="#f2d6b3" d="M 624.023438 205.171875 C 624.03125 205.105469 624.03125 205.035156 624.035156 204.964844 C 623.792969 202.144531 620.910156 200.339844 618.265625 199.875 C 615.878906 199.328125 612.679688 200.078125 611.902344 202.605469 C 611.796875 202.972656 611.792969 203.363281 611.863281 203.738281 C 612.652344 206.941406 616.3125 208.679688 619.488281 208.519531 C 621.523438 208.574219 623.859375 207.296875 624.023438 205.171875 Z M 624.960938 193.394531 C 625.074219 191.664062 623.394531 190.15625 621.726562 189.726562 C 618.425781 188.839844 614.121094 189.941406 612.753906 193.238281 C 612.652344 193.550781 612.617188 193.878906 612.636719 194.207031 C 612.824219 196.535156 615.382812 197.753906 617.53125 197.851562 C 620.355469 198.042969 623.746094 196.917969 624.796875 194.144531 C 624.894531 193.890625 624.945312 193.640625 624.960938 193.394531 Z M 613.683594 211.804688 C 613.773438 208.804688 610.890625 206.476562 608.054688 205.921875 C 606.027344 205.335938 603.167969 206.152344 602.796875 208.425781 C 602.546875 211.621094 605.859375 214.121094 608.871094 214.488281 C 610.851562 214.875 613.378906 213.953125 613.683594 211.804688 Z M 615.375 185.613281 C 615.5 184.34375 614.832031 183.023438 613.539062 182.484375 C 610.085938 181.050781 605.382812 182.859375 604.304688 186.449219 C 603.894531 187.953125 604.980469 189.40625 606.398438 189.917969 C 609.429688 191.003906 613.1875 189.6875 614.847656 187.027344 C 615.152344 186.597656 615.324219 186.109375 615.375 185.613281 Z M 607.789062 198.410156 C 608.007812 195.921875 606.9375 193.273438 605.148438 191.480469 C 603.046875 189.53125 600.550781 187.863281 597.753906 187.042969 C 595.765625 186.179688 593.269531 187.5 593.0625 189.625 C 592.757812 192.179688 594.367188 194.546875 594.269531 197.105469 C 594.414062 199.300781 593.082031 201.128906 592.148438 203 C 591.269531 204.585938 591.339844 206.898438 593.097656 207.910156 C 594.902344 208.746094 596.984375 207.953125 598.714844 207.296875 C 601.554688 205.890625 604.546875 204.382812 606.472656 201.828125 C 607.261719 200.804688 607.679688 199.625 607.785156 198.410156 Z M 607.789062 198.410156 " fill-opacity="1" fill-rule="nonzero"/></g></g></g><g clip-path="url(#cf66a422d5)"><g clip-path="url(#a8df2a7091)"><g clip-path="url(#acea2cfd63)"><path fill="#f2d6b3" d="M 433.882812 364.542969 C 433.890625 364.613281 433.902344 364.679688 433.914062 364.75 C 434.667969 367.480469 437.832031 368.722656 440.515625 368.691406 C 442.964844 368.789062 445.972656 367.464844 446.269531 364.835938 C 446.308594 364.457031 446.238281 364.070312 446.101562 363.714844 C 444.734375 360.710938 440.820312 359.675781 437.726562 360.417969 C 435.714844 360.738281 433.652344 362.425781 433.882812 364.542969 Z M 435.128906 376.292969 C 435.335938 378.015625 437.265625 379.1875 438.980469 379.304688 C 442.390625 379.566406 446.417969 377.695312 447.15625 374.199219 C 447.199219 373.875 447.175781 373.546875 447.09375 373.230469 C 446.480469 370.972656 443.742188 370.246094 441.613281 370.542969 C 438.800781 370.875 435.675781 372.605469 435.152344 375.523438 C 435.105469 375.789062 435.097656 376.046875 435.128906 376.292969 Z M 442.828125 356.121094 C 443.292969 359.089844 446.550781 360.847656 449.441406 360.871094 C 451.542969 361.074219 454.203125 359.746094 454.152344 357.441406 C 453.808594 354.257812 450.09375 352.40625 447.066406 352.601562 C 445.046875 352.585938 442.734375 353.953125 442.828125 356.121094 Z M 445.984375 382.179688 C 446.09375 383.449219 446.992188 384.625 448.359375 384.914062 C 452.019531 385.691406 456.308594 383.046875 456.710938 379.320312 C 456.835938 377.769531 455.5 376.539062 454.011719 376.296875 C 450.832031 375.785156 447.382812 377.769531 446.238281 380.691406 C 446.019531 381.167969 445.941406 381.679688 445.984375 382.179688 Z M 451.085938 368.203125 C 451.328125 370.691406 452.867188 373.097656 454.957031 374.53125 C 457.378906 376.058594 460.136719 377.238281 463.039062 377.53125 C 465.152344 378.015625 467.363281 376.261719 467.175781 374.128906 C 467.007812 371.5625 464.988281 369.53125 464.613281 367 C 464.070312 364.871094 465.042969 362.828125 465.613281 360.816406 C 466.1875 359.09375 465.691406 356.835938 463.777344 356.164062 C 461.847656 355.675781 459.953125 356.835938 458.371094 357.800781 C 455.835938 359.707031 453.175781 361.738281 451.75 364.605469 C 451.160156 365.753906 450.96875 366.988281 451.085938 368.203125 Z M 451.085938 368.203125 " fill-opacity="1" fill-rule="nonzero"/></g></g></g><g clip-path="url(#73dd5c4b94)"><g clip-path="url(#c7e49a3dc6)"><g clip-path="url(#04d56e09e7)"><path fill="#f2d6b3" d="M 662.554688 350.3125 C 662.578125 350.375 662.601562 350.441406 662.628906 350.507812 C 663.96875 353 667.324219 353.511719 669.933594 352.886719 C 672.34375 352.4375 674.980469 350.472656 674.691406 347.84375 C 674.644531 347.464844 674.492188 347.105469 674.28125 346.785156 C 672.289062 344.160156 668.242188 344.019531 665.394531 345.433594 C 663.503906 346.191406 661.867188 348.296875 662.554688 350.3125 Z M 666.355469 361.5 C 666.9375 363.132812 669.074219 363.847656 670.777344 363.578125 C 674.15625 363.078125 677.667969 360.355469 677.621094 356.78125 C 677.589844 356.457031 677.492188 356.140625 677.34375 355.851562 C 676.25 353.78125 673.421875 353.683594 671.410156 354.449219 C 668.742188 355.398438 666.074219 357.777344 666.207031 360.742188 C 666.222656 361.015625 666.273438 361.265625 666.355469 361.5 Z M 669.417969 340.105469 C 670.527344 342.898438 674.089844 343.890625 676.914062 343.269531 C 679.003906 343 681.304688 341.113281 680.75 338.875 C 679.710938 335.84375 675.683594 334.867188 672.773438 335.726562 C 670.804688 336.160156 668.847656 338.011719 669.417969 340.105469 Z M 678.234375 364.828125 C 678.617188 366.042969 679.757812 366.992188 681.152344 366.96875 C 684.890625 366.914062 688.492188 363.378906 688.058594 359.652344 C 687.839844 358.113281 686.269531 357.210938 684.765625 357.304688 C 681.550781 357.511719 678.628906 360.214844 678.15625 363.320312 C 678.046875 363.835938 678.082031 364.351562 678.234375 364.828125 Z M 680.132812 350.058594 C 680.914062 352.433594 682.945312 354.4375 685.296875 355.371094 C 687.992188 356.324219 690.941406 356.863281 693.832031 356.503906 C 696 356.507812 697.769531 354.300781 697.117188 352.265625 C 696.390625 349.796875 693.972656 348.265625 693.050781 345.875 C 692.050781 343.921875 692.550781 341.710938 692.664062 339.621094 C 692.84375 337.8125 691.863281 335.71875 689.851562 335.488281 C 687.863281 335.441406 686.269531 337 684.941406 338.289062 C 682.886719 340.710938 680.742188 343.289062 679.984375 346.398438 C 679.664062 347.652344 679.75 348.898438 680.132812 350.058594 Z M 680.132812 350.058594 " fill-opacity="1" fill-rule="nonzero"/></g></g></g><g clip-path="url(#46a36e85a1)"><g clip-path="url(#30a16d407a)"><g clip-path="url(#6daf470b81)"><path fill="#f2d6b3" d="M 517.023438 383.332031 C 517.046875 383.394531 517.078125 383.460938 517.109375 383.523438 C 518.59375 385.929688 521.976562 386.230469 524.542969 385.445312 C 526.917969 384.847656 529.433594 382.726562 528.984375 380.121094 C 528.914062 379.742188 528.738281 379.394531 528.507812 379.089844 C 526.359375 376.589844 522.3125 376.703125 519.554688 378.285156 C 517.714844 379.160156 516.210938 381.363281 517.023438 383.332031 Z M 521.496094 394.265625 C 522.175781 395.859375 524.355469 396.445312 526.035156 396.070312 C 529.378906 395.359375 532.71875 392.425781 532.449219 388.863281 C 532.398438 388.539062 532.285156 388.230469 532.117188 387.949219 C 530.902344 385.953125 528.070312 386.03125 526.113281 386.914062 C 523.507812 388.027344 520.992188 390.570312 521.304688 393.519531 C 521.335938 393.789062 521.398438 394.035156 521.496094 394.265625 Z M 523.246094 372.722656 C 524.523438 375.4375 528.140625 376.207031 530.917969 375.417969 C 532.992188 375.019531 535.171875 372.992188 534.480469 370.796875 C 533.257812 367.832031 529.179688 367.105469 526.328125 368.144531 C 524.390625 368.699219 522.550781 370.667969 523.246094 372.722656 Z M 533.554688 396.855469 C 534.011719 398.046875 535.207031 398.921875 536.597656 398.8125 C 540.324219 398.523438 543.703125 394.777344 543.042969 391.082031 C 542.730469 389.558594 541.109375 388.753906 539.613281 388.941406 C 536.417969 389.347656 533.667969 392.226562 533.382812 395.355469 C 533.308594 395.875 533.375 396.390625 533.554688 396.855469 Z M 534.546875 381.996094 C 535.472656 384.316406 537.621094 386.195312 540.023438 386.976562 C 542.773438 387.765625 545.75 388.121094 548.613281 387.582031 C 550.777344 387.453125 552.410156 385.140625 551.632812 383.148438 C 550.753906 380.730469 548.25 379.347656 547.183594 377.023438 C 546.066406 375.132812 546.429688 372.894531 546.417969 370.800781 C 546.484375 368.988281 545.378906 366.957031 543.355469 366.851562 C 541.367188 366.925781 539.875 368.578125 538.625 369.949219 C 536.726562 372.492188 534.742188 375.195312 534.175781 378.351562 C 533.933594 379.621094 534.09375 380.859375 534.546875 381.996094 Z M 534.546875 381.996094 " fill-opacity="1" fill-rule="nonzero"/></g></g></g><g clip-path="url(#6ceea28459)"><g clip-path="url(#f5de3e073e)"><g clip-path="url(#36951c5455)"><path fill="#f2d6b3" d="M 587.953125 336.910156 C 587.957031 336.980469 587.96875 337.050781 587.980469 337.117188 C 588.734375 339.847656 591.898438 341.089844 594.582031 341.0625 C 597.03125 341.160156 600.039062 339.835938 600.335938 337.210938 C 600.375 336.828125 600.304688 336.441406 600.167969 336.085938 C 598.804688 333.082031 594.886719 332.046875 591.796875 332.789062 C 589.785156 333.105469 587.722656 334.792969 587.953125 336.910156 Z M 589.191406 348.660156 C 589.398438 350.382812 591.328125 351.558594 593.046875 351.671875 C 596.453125 351.9375 600.480469 350.066406 601.222656 346.574219 C 601.261719 346.246094 601.238281 345.917969 601.15625 345.601562 C 600.546875 343.34375 597.808594 342.617188 595.679688 342.914062 C 592.867188 343.246094 589.738281 344.972656 589.214844 347.890625 C 589.167969 348.160156 589.164062 348.414062 589.191406 348.660156 Z M 596.898438 328.492188 C 597.363281 331.460938 600.621094 333.21875 603.511719 333.246094 C 605.613281 333.449219 608.273438 332.121094 608.222656 329.816406 C 607.878906 326.628906 604.164062 324.78125 601.136719 324.972656 C 599.121094 324.957031 596.804688 326.324219 596.898438 328.492188 Z M 600.046875 354.550781 C 600.152344 355.820312 601.054688 356.996094 602.421875 357.289062 C 606.082031 358.0625 610.371094 355.421875 610.773438 351.695312 C 610.898438 350.144531 609.566406 348.914062 608.078125 348.671875 C 604.898438 348.160156 601.449219 350.144531 600.300781 353.0625 C 600.082031 353.539062 600.003906 354.054688 600.046875 354.550781 Z M 605.152344 340.578125 C 605.394531 343.066406 606.933594 345.472656 609.019531 346.90625 C 611.441406 348.433594 614.203125 349.617188 617.101562 349.910156 C 619.214844 350.394531 621.429688 348.640625 621.242188 346.511719 C 621.074219 343.941406 619.054688 341.910156 618.679688 339.378906 C 618.136719 337.25 619.109375 335.207031 619.683594 333.195312 C 620.257812 331.472656 619.761719 329.214844 617.851562 328.542969 C 615.921875 328.050781 614.023438 329.214844 612.441406 330.179688 C 609.90625 332.082031 607.242188 334.113281 605.820312 336.976562 C 605.230469 338.128906 605.035156 339.363281 605.152344 340.578125 Z M 605.152344 340.578125 " fill-opacity="1" fill-rule="nonzero"/></g></g></g><g clip-path="url(#babff5815b)"><g clip-path="url(#ce29eb3105)"><g clip-path="url(#d33abd6ba2)"><path fill="#f2d6b3" d="M 365.660156 415.339844 C 365.679688 415.40625 365.707031 415.472656 365.730469 415.539062 C 367.054688 418.039062 370.410156 418.566406 373.023438 417.957031 C 375.433594 417.519531 378.085938 415.574219 377.808594 412.941406 C 377.765625 412.5625 377.613281 412.199219 377.402344 411.882812 C 375.425781 409.246094 371.382812 409.082031 368.523438 410.476562 C 366.628906 411.226562 364.980469 413.324219 365.660156 415.339844 Z M 369.398438 426.550781 C 369.96875 428.1875 372.105469 428.914062 373.804688 428.65625 C 377.1875 428.171875 380.71875 425.46875 380.6875 421.894531 C 380.65625 421.570312 380.5625 421.253906 380.414062 420.960938 C 379.335938 418.890625 376.503906 418.777344 374.492188 419.527344 C 371.816406 420.460938 369.136719 422.828125 369.253906 425.792969 C 369.265625 426.066406 369.316406 426.316406 369.398438 426.550781 Z M 372.578125 405.175781 C 373.671875 407.972656 377.230469 408.984375 380.054688 408.378906 C 382.148438 408.121094 384.460938 406.246094 383.914062 404.007812 C 382.894531 400.96875 378.871094 399.96875 375.957031 400.816406 C 373.984375 401.238281 372.019531 403.078125 372.578125 405.175781 Z M 381.257812 429.945312 C 381.636719 431.164062 382.769531 432.113281 384.164062 432.101562 C 387.902344 432.0625 391.519531 428.550781 391.109375 424.824219 C 390.898438 423.28125 389.332031 422.371094 387.832031 422.457031 C 384.617188 422.648438 381.675781 425.332031 381.1875 428.433594 C 381.074219 428.949219 381.109375 429.46875 381.257812 429.945312 Z M 383.234375 415.1875 C 384.003906 417.5625 386.023438 419.582031 388.371094 420.523438 C 391.0625 421.492188 394.007812 422.046875 396.902344 421.703125 C 399.070312 421.71875 400.851562 419.523438 400.210938 417.484375 C 399.492188 415.011719 397.089844 413.46875 396.175781 411.074219 C 395.1875 409.113281 395.699219 406.90625 395.824219 404.816406 C 396.015625 403.011719 395.046875 400.910156 393.035156 400.667969 C 391.046875 400.609375 389.445312 402.160156 388.109375 403.445312 C 386.042969 405.851562 383.882812 408.417969 383.109375 411.523438 C 382.78125 412.777344 382.859375 414.023438 383.234375 415.1875 Z M 383.234375 415.1875 " fill-opacity="1" fill-rule="nonzero"/></g></g></g><g clip-path="url(#af5193c7b8)"><g clip-path="url(#485025e378)"><g clip-path="url(#5d0ff23212)"><path fill="#f2d6b3" d="M 13.855469 436.296875 C 13.863281 436.367188 13.875 436.433594 13.886719 436.503906 C 14.640625 439.234375 17.804688 440.476562 20.492188 440.445312 C 22.9375 440.542969 25.945312 439.21875 26.242188 436.589844 C 26.28125 436.210938 26.210938 435.824219 26.074219 435.46875 C 24.707031 432.464844 20.792969 431.429688 17.699219 432.171875 C 15.6875 432.492188 13.628906 434.179688 13.855469 436.296875 Z M 15.101562 448.046875 C 15.308594 449.765625 17.238281 450.941406 18.957031 451.058594 C 22.363281 451.320312 26.390625 449.449219 27.128906 445.953125 C 27.171875 445.628906 27.148438 445.300781 27.066406 444.984375 C 26.453125 442.726562 23.714844 442 21.585938 442.296875 C 18.773438 442.628906 15.648438 444.359375 15.125 447.277344 C 15.078125 447.542969 15.070312 447.800781 15.101562 448.046875 Z M 22.800781 427.875 C 23.265625 430.84375 26.527344 432.601562 29.414062 432.625 C 31.515625 432.828125 34.175781 431.5 34.125 429.195312 C 33.78125 426.011719 30.066406 424.160156 27.039062 424.355469 C 25.023438 424.339844 22.707031 425.707031 22.800781 427.875 Z M 25.957031 453.933594 C 26.066406 455.203125 26.964844 456.378906 28.335938 456.667969 C 31.992188 457.445312 36.285156 454.800781 36.683594 451.074219 C 36.808594 449.523438 35.476562 448.292969 33.988281 448.050781 C 30.804688 447.539062 27.359375 449.523438 26.210938 452.445312 C 25.992188 452.921875 25.914062 453.433594 25.957031 453.933594 Z M 31.0625 439.957031 C 31.300781 442.445312 32.839844 444.851562 34.929688 446.285156 C 37.351562 447.8125 40.113281 448.992188 43.011719 449.285156 C 45.125 449.769531 47.335938 448.015625 47.148438 445.882812 C 46.980469 443.316406 44.960938 441.285156 44.585938 438.753906 C 44.042969 436.625 45.015625 434.582031 45.589844 432.570312 C 46.160156 430.847656 45.664062 428.589844 43.753906 427.917969 C 41.824219 427.425781 39.925781 428.589844 38.34375 429.554688 C 35.808594 431.460938 33.148438 433.492188 31.726562 436.359375 C 31.136719 437.507812 30.941406 438.742188 31.0625 439.957031 Z M 31.0625 439.957031 " fill-opacity="1" fill-rule="nonzero"/></g></g></g><g clip-path="url(#646a7b2b75)"><g clip-path="url(#33906e5813)"><g clip-path="url(#52e45e325b)"><path fill="#f2d6b3" d="M 242.527344 422.066406 C 242.550781 422.128906 242.578125 422.195312 242.601562 422.261719 C 243.941406 424.753906 247.300781 425.265625 249.910156 424.640625 C 252.316406 424.191406 254.957031 422.226562 254.667969 419.597656 C 254.621094 419.21875 254.464844 418.855469 254.253906 418.539062 C 252.261719 415.914062 248.21875 415.773438 245.367188 417.1875 C 243.476562 417.945312 241.839844 420.050781 242.527344 422.066406 Z M 246.328125 433.253906 C 246.910156 434.886719 249.050781 435.601562 250.75 435.332031 C 254.128906 434.832031 257.644531 432.109375 257.59375 428.535156 C 257.5625 428.210938 257.464844 427.894531 257.316406 427.601562 C 256.222656 425.535156 253.394531 425.4375 251.382812 426.203125 C 248.714844 427.152344 246.050781 429.53125 246.183594 432.496094 C 246.195312 432.769531 246.246094 433.019531 246.328125 433.253906 Z M 249.390625 411.859375 C 250.5 414.652344 254.066406 415.644531 256.886719 415.023438 C 258.980469 414.753906 261.28125 412.867188 260.722656 410.628906 C 259.6875 407.597656 255.65625 406.621094 252.746094 407.480469 C 250.777344 407.914062 248.824219 409.765625 249.390625 411.859375 Z M 258.207031 436.582031 C 258.59375 437.796875 259.730469 438.746094 261.128906 438.722656 C 264.863281 438.667969 268.464844 435.132812 268.03125 431.40625 C 267.8125 429.867188 266.242188 428.964844 264.738281 429.058594 C 261.527344 429.265625 258.601562 431.96875 258.128906 435.074219 C 258.019531 435.589844 258.054688 436.105469 258.207031 436.582031 Z M 260.105469 421.8125 C 260.886719 424.1875 262.917969 426.191406 265.269531 427.125 C 267.964844 428.078125 270.917969 428.617188 273.808594 428.257812 C 275.972656 428.261719 277.746094 426.054688 277.09375 424.019531 C 276.363281 421.550781 273.949219 420.019531 273.023438 417.628906 C 272.023438 415.675781 272.523438 413.464844 272.640625 411.375 C 272.816406 409.566406 271.835938 407.472656 269.824219 407.242188 C 267.835938 407.195312 266.242188 408.75 264.914062 410.042969 C 262.863281 412.464844 260.714844 415.039062 259.960938 418.152344 C 259.636719 419.40625 259.722656 420.652344 260.105469 421.8125 Z M 260.105469 421.8125 " fill-opacity="1" fill-rule="nonzero"/></g></g></g><g clip-path="url(#3690945b74)"><g clip-path="url(#ee5989bb2b)"><g clip-path="url(#1520f5298d)"><path fill="#f2d6b3" d="M 308.675781 372.160156 C 308.679688 372.230469 308.6875 372.300781 308.699219 372.367188 C 309.371094 375.117188 312.5 376.457031 315.183594 376.507812 C 317.625 376.679688 320.671875 375.445312 321.046875 372.824219 C 321.097656 372.445312 321.039062 372.058594 320.910156 371.699219 C 319.636719 368.65625 315.75 367.503906 312.640625 368.152344 C 310.617188 368.414062 308.507812 370.039062 308.675781 372.160156 Z M 309.570312 383.941406 C 309.726562 385.667969 311.617188 386.898438 313.332031 387.066406 C 316.730469 387.429688 320.8125 385.679688 321.65625 382.210938 C 321.707031 381.886719 321.691406 381.558594 321.621094 381.238281 C 321.078125 378.964844 318.359375 378.15625 316.222656 378.390625 C 313.402344 378.636719 310.226562 380.273438 309.613281 383.171875 C 309.558594 383.4375 309.546875 383.695312 309.570312 383.941406 Z M 317.863281 364.011719 C 318.242188 366.992188 321.449219 368.847656 324.335938 368.957031 C 326.429688 369.222656 329.128906 367.976562 329.144531 365.671875 C 328.898438 362.476562 325.238281 360.519531 322.207031 360.617188 C 320.191406 360.542969 317.835938 361.84375 317.863281 364.011719 Z M 320.246094 390.152344 C 320.316406 391.425781 321.183594 392.625 322.539062 392.957031 C 326.175781 393.839844 330.542969 391.328125 331.054688 387.617188 C 331.222656 386.070312 329.925781 384.800781 328.449219 384.515625 C 325.28125 383.90625 321.777344 385.785156 320.546875 388.671875 C 320.3125 389.140625 320.21875 389.652344 320.246094 390.152344 Z M 325.761719 376.335938 C 325.929688 378.832031 327.398438 381.28125 329.441406 382.777344 C 331.816406 384.378906 334.542969 385.640625 337.433594 386.019531 C 339.53125 386.566406 341.792969 384.878906 341.671875 382.742188 C 341.578125 380.171875 339.621094 378.082031 339.320312 375.539062 C 338.839844 373.394531 339.871094 371.382812 340.503906 369.390625 C 341.128906 367.6875 340.699219 365.414062 338.808594 364.683594 C 336.894531 364.136719 334.960938 365.242188 333.351562 366.160156 C 330.761719 367.984375 328.042969 369.9375 326.535156 372.757812 C 325.910156 373.890625 325.683594 375.117188 325.761719 376.335938 Z M 325.761719 376.335938 " fill-opacity="1" fill-rule="nonzero"/></g></g></g><g clip-path="url(#f2852decba)"><g clip-path="url(#02f13358c8)"><g clip-path="url(#42ef88a8c8)"><path fill="#f2d6b3" d="M 96.996094 455.085938 C 97.019531 455.148438 97.050781 455.214844 97.082031 455.277344 C 98.570312 457.683594 101.949219 457.984375 104.515625 457.199219 C 106.890625 456.601562 109.40625 454.480469 108.957031 451.875 C 108.886719 451.496094 108.710938 451.148438 108.480469 450.84375 C 106.332031 448.34375 102.289062 448.457031 99.53125 450.039062 C 97.6875 450.914062 96.183594 453.117188 96.996094 455.085938 Z M 101.472656 466.019531 C 102.148438 467.613281 104.328125 468.199219 106.007812 467.824219 C 109.351562 467.113281 112.691406 464.179688 112.425781 460.617188 C 112.371094 460.292969 112.257812 459.984375 112.089844 459.703125 C 110.875 457.707031 108.042969 457.785156 106.085938 458.667969 C 103.480469 459.78125 100.964844 462.324219 101.277344 465.273438 C 101.308594 465.542969 101.375 465.789062 101.472656 466.019531 Z M 103.222656 444.476562 C 104.496094 447.191406 108.113281 447.960938 110.894531 447.171875 C 112.964844 446.773438 115.144531 444.746094 114.453125 442.550781 C 113.234375 439.585938 109.152344 438.859375 106.300781 439.898438 C 104.363281 440.453125 102.523438 442.421875 103.222656 444.476562 Z M 113.527344 468.609375 C 113.988281 469.800781 115.179688 470.675781 116.574219 470.566406 C 120.296875 470.277344 123.675781 466.53125 123.019531 462.835938 C 122.703125 461.3125 121.082031 460.507812 119.585938 460.695312 C 116.394531 461.101562 113.640625 463.980469 113.355469 467.105469 C 113.28125 467.628906 113.347656 468.144531 113.527344 468.609375 Z M 114.519531 453.75 C 115.445312 456.070312 117.59375 457.945312 120 458.730469 C 122.746094 459.519531 125.726562 459.875 128.589844 459.335938 C 130.75 459.207031 132.382812 456.894531 131.609375 454.902344 C 130.726562 452.484375 128.226562 451.101562 127.15625 448.777344 C 126.039062 446.886719 126.402344 444.648438 126.390625 442.554688 C 126.457031 440.742188 125.351562 438.710938 123.328125 438.605469 C 121.34375 438.679688 119.847656 440.332031 118.601562 441.703125 C 116.699219 444.246094 114.714844 446.949219 114.152344 450.105469 C 113.90625 451.375 114.066406 452.613281 114.519531 453.75 Z M 114.519531 453.75 " fill-opacity="1" fill-rule="nonzero"/></g></g></g><g clip-path="url(#0eb9391eda)"><g clip-path="url(#aaa5ebca17)"><g clip-path="url(#c039930bd7)"><path fill="#f2d6b3" d="M 167.925781 408.664062 C 167.933594 408.734375 167.941406 408.804688 167.953125 408.871094 C 168.710938 411.601562 171.875 412.84375 174.558594 412.816406 C 177.003906 412.914062 180.011719 411.589844 180.308594 408.960938 C 180.347656 408.582031 180.277344 408.195312 180.140625 407.839844 C 178.777344 404.835938 174.863281 403.800781 171.769531 404.542969 C 169.757812 404.859375 167.695312 406.546875 167.925781 408.664062 Z M 169.164062 420.414062 C 169.371094 422.136719 171.300781 423.3125 173.019531 423.425781 C 176.425781 423.691406 180.457031 421.820312 181.195312 418.328125 C 181.234375 418 181.210938 417.671875 181.128906 417.355469 C 180.519531 415.097656 177.78125 414.371094 175.652344 414.667969 C 172.839844 415 169.710938 416.726562 169.1875 419.644531 C 169.140625 419.914062 169.136719 420.167969 169.164062 420.414062 Z M 176.871094 400.246094 C 177.335938 403.214844 180.59375 404.972656 183.484375 405 C 185.585938 405.203125 188.246094 403.875 188.195312 401.570312 C 187.851562 398.382812 184.136719 396.535156 181.109375 396.726562 C 179.09375 396.710938 176.777344 398.078125 176.871094 400.246094 Z M 180.019531 426.304688 C 180.125 427.574219 181.027344 428.75 182.394531 429.042969 C 186.054688 429.816406 190.34375 427.175781 190.746094 423.449219 C 190.871094 421.898438 189.539062 420.667969 188.050781 420.425781 C 184.871094 419.914062 181.421875 421.898438 180.273438 424.816406 C 180.054688 425.292969 179.976562 425.808594 180.019531 426.304688 Z M 185.128906 412.332031 C 185.367188 414.820312 186.90625 417.226562 188.996094 418.660156 C 191.414062 420.1875 194.175781 421.371094 197.074219 421.664062 C 199.1875 422.148438 201.402344 420.394531 201.214844 418.261719 C 201.046875 415.695312 199.027344 413.664062 198.652344 411.132812 C 198.109375 409.003906 199.085938 406.960938 199.65625 404.949219 C 200.230469 403.226562 199.734375 400.96875 197.824219 400.296875 C 195.894531 399.804688 193.996094 400.96875 192.414062 401.933594 C 189.878906 403.835938 187.21875 405.867188 185.792969 408.730469 C 185.203125 409.882812 185.011719 411.117188 185.128906 412.332031 Z M 185.128906 412.332031 " fill-opacity="1" fill-rule="nonzero"/></g></g></g></svg>