<?xml version="1.0" encoding="utf-8"?>
<!-- Generator: Adobe Illustrator 24.3.0, SVG Export Plug-In . SVG Version: 6.00 Build 0)  -->
<svg version="1.1" id="Calque_1" xmlns="http://www.w3.org/2000/svg" xmlns:xlink="http://www.w3.org/1999/xlink" x="0px" y="0px"
	 viewBox="0 0 498 177" style="enable-background:new 0 0 498 177;" xml:space="preserve">
<style type="text/css">
	.st0{fill:#FAFAFA;}
	.st1{fill:#FFDC00;}
</style>
<path class="st0" d="M61.6,24.2h29c7.7,0,14.8,1,21.1,3.1c6.3,2.1,11.7,5.3,16.2,9.6c4.5,4.3,7.9,9.8,10.4,16.4
	c2.5,6.7,3.7,14.6,3.7,23.7c0,9.2-1.2,17.1-3.7,23.9c-2.5,6.8-5.9,12.4-10.3,16.8c-4.4,4.4-9.7,7.7-15.8,9.9
	c-6.1,2.2-12.9,3.3-20.3,3.3H61.6V24.2z M89.3,111.4c4.1,0,7.9-0.6,11.4-1.8c3.4-1.2,6.4-3.1,8.8-5.8c2.5-2.7,4.4-6.2,5.7-10.6
	c1.4-4.4,2-9.8,2-16.2c0-6.3-0.7-11.6-2-15.9c-1.4-4.3-3.3-7.7-5.7-10.3c-2.5-2.6-5.4-4.4-8.8-5.5c-3.4-1.1-7.2-1.6-11.4-1.6h-3.4
	v67.7H89.3z"/>
<path class="st0" d="M149.8,24.2h24.5l3.4,56.8c0.1,4.6,0.2,9.1,0.3,13.6c0.1,4.5,0.2,9,0.3,13.6h0.5c0.9-4.6,1.8-9.1,2.9-13.6
	c1-4.5,2-9,2.9-13.6l7.4-29.6h14.6l7,29.6c0.9,4.4,1.8,8.8,2.8,13.4c1,4.6,1.9,9.2,2.8,13.7h0.7c0.2-4.6,0.4-9.1,0.4-13.7
	c0.1-4.5,0.2-9,0.4-13.5l3.1-56.8h22.9l-13.3,106.7h-25.2l-6.7-33.5c-0.7-3.4-1.3-6.8-1.8-10.4c-0.5-3.5-0.9-6.9-1.1-10.1h-0.5
	c-0.3,3.2-0.7,6.5-1.2,10.1c-0.5,3.5-1.1,7-1.7,10.4l-6.4,33.5H164L149.8,24.2z"/>
<path class="st0" d="M284.3,44.5h-31.9V24.2h88v20.3h-31.9v86.4h-24.2V44.5z"/>
<rect x="363.9" y="130.9" class="st1" width="72.7" height="24"/>
</svg>
