<?xml version="1.0" encoding="utf-8"?>
<!-- Generator: Adobe Illustrator 24.3.0, SVG Export Plug-In . SVG Version: 6.00 Build 0)  -->
<svg version="1.1" xmlns="http://www.w3.org/2000/svg" xmlns:xlink="http://www.w3.org/1999/xlink" x="0px" y="0px"
	 viewBox="0 0 141.7 141.7" style="enable-background:new 0 0 141.7 141.7;" xml:space="preserve">
<style type="text/css">
	.st0{fill:#9C3127;}
	.st1{fill:none;stroke:#FFFFFF;stroke-width:3.9345;stroke-miterlimit:10;}
	.st2{fill:#FFFFFF;}
</style>
<g id="Calque_3">
	<circle class="st0" cx="70.8" cy="70.8" r="52.7"/>
</g>
<g id="Calque_2">
	<circle class="st1" cx="70.8" cy="70.8" r="42.5"/>
	<g>
		<path class="st2" d="M66.2,81.4L66,79.5c-0.4-3.9,0.9-8.1,4.5-12.5c3.2-3.8,5-6.6,5-9.9c0-3.7-2.3-6.1-6.8-6.2
			c-2.6,0-5.5,0.9-7.3,2.2l-1.7-4.5c2.4-1.7,6.5-2.9,10.3-2.9c8.3,0,12,5.1,12,10.6c0,4.9-2.7,8.4-6.2,12.5
			c-3.2,3.7-4.3,6.9-4.1,10.6l0.1,1.9H66.2z M64.6,91.5c0-2.7,1.8-4.5,4.3-4.5c2.5,0,4.3,1.9,4.3,4.5c0,2.5-1.7,4.5-4.3,4.5
			C66.3,95.9,64.6,94,64.6,91.5z"/>
	</g>
</g>
</svg>
