<?xml version="1.0" encoding="utf-8"?>
<!-- Generator: Adobe Illustrator 24.3.0, SVG Export Plug-In . SVG Version: 6.00 Build 0)  -->
<svg version="1.1" xmlns="http://www.w3.org/2000/svg" xmlns:xlink="http://www.w3.org/1999/xlink" x="0px" y="0px"
	 viewBox="0 0 141.7 141.7" style="enable-background:new 0 0 141.7 141.7;" xml:space="preserve">
<style type="text/css">
	.st0{fill:#9C3127;}
	.st1{fill:#FFFFFF;}
</style>
<g id="Calque_3">
	<circle class="st0" cx="70.8" cy="70.8" r="52.7"/>
</g>
<g id="Calque_2">
	<g>
		<path class="st1" d="M28.6,80c1.7,1.1,4.2,1.9,6.8,1.9c3.9,0,6.2-2.1,6.2-5c0-2.8-1.6-4.3-5.6-5.9c-4.8-1.7-7.8-4.2-7.8-8.4
			c0-4.6,3.8-8,9.5-8c3,0,5.2,0.7,6.5,1.4l-1.1,3.1c-1-0.5-2.9-1.4-5.6-1.4c-4,0-5.6,2.4-5.6,4.4c0,2.8,1.8,4.1,5.9,5.7
			c5,1.9,7.5,4.3,7.5,8.7c0,4.6-3.4,8.5-10.3,8.5c-2.8,0-6-0.8-7.5-1.9L28.6,80z"/>
		<path class="st1" d="M49.7,82.3c0-1.6,1.1-2.8,2.6-2.8c1.5,0,2.6,1.1,2.6,2.8c0,1.6-1,2.8-2.6,2.8C50.8,85.1,49.7,83.9,49.7,82.3z
			"/>
		<path class="st1" d="M85.1,69.5c0,10.2-6.2,15.6-13.7,15.6c-7.8,0-13.3-6-13.3-15c0-9.4,5.8-15.5,13.7-15.5
			C79.9,54.6,85.1,60.8,85.1,69.5z M62.2,70c0,6.3,3.4,12,9.4,12c6,0,9.5-5.6,9.5-12.3c0-5.9-3.1-12-9.4-12
			C65.3,57.7,62.2,63.5,62.2,70z"/>
		<path class="st1" d="M87.5,82.3c0-1.6,1.1-2.8,2.6-2.8s2.6,1.1,2.6,2.8c0,1.6-1,2.8-2.6,2.8C88.6,85.1,87.5,83.9,87.5,82.3z"/>
		<path class="st1" d="M97.1,80c1.7,1.1,4.2,1.9,6.8,1.9c3.9,0,6.2-2.1,6.2-5c0-2.8-1.6-4.3-5.6-5.9c-4.8-1.7-7.8-4.2-7.8-8.4
			c0-4.6,3.8-8,9.6-8c3,0,5.2,0.7,6.5,1.4l-1.1,3.1c-1-0.5-2.9-1.4-5.6-1.4c-4,0-5.6,2.4-5.6,4.4c0,2.8,1.8,4.1,5.9,5.7
			c5,1.9,7.5,4.3,7.5,8.7c0,4.6-3.4,8.5-10.3,8.5c-2.8,0-6-0.8-7.5-1.9L97.1,80z"/>
	</g>
</g>
</svg>
